PathFileType	4	(X/Y/Z)	C:\Users\86182\Documents\cortex\Trimmed_M4_L16.trc
DataRate	CameraRate	NumFrames	NumMarkers	Units	OrigDataRate	OrigDataStartFrame	OrigNumFrames
100.00	100.00	       112	2	mm	100.00	541	       901
Frame#	Time	gripper			box			
		X1	Y1	Z1	X2	Y2	Z2	

541	5.400	274.61646	150.45865	292.45502	277.01901	147.39890	157.23407	
542	5.410	274.61456	150.45766	292.45520	277.01831	147.39915	157.23422	
543	5.420	274.61127	150.45587	292.45581	277.01645	147.39990	157.23471	
544	5.430	274.60693	150.45351	292.45660	277.01355	147.40103	157.23544	
545	5.440	274.60226	150.45099	292.45740	277.01022	147.40233	157.23627	
546	5.450	274.59842	150.44891	292.45801	277.00732	147.40346	157.23700	
547	5.460	274.59647	150.44788	292.45825	277.00549	147.40417	157.23746	
548	5.470	274.59677	150.44804	292.45816	277.00494	147.40439	157.23761	
549	5.480	274.59875	150.44913	292.45782	277.00574	147.40408	157.23740	
550	5.490	274.60150	150.45059	292.45740	277.00763	147.40335	157.23692	
551	5.500	274.60443	150.45216	292.45697	277.01019	147.40233	157.23627	
552	5.510	274.60742	150.45378	292.45648	277.01300	147.40125	157.23557	
553	5.520	274.61035	150.45538	292.45593	277.01550	147.40025	157.23492	
554	5.530	274.61307	150.45686	292.45538	277.01733	147.39955	157.23447	
555	5.540	274.61514	150.45802	292.45490	277.01819	147.39922	157.23425	
556	5.550	274.61630	150.45865	292.45465	277.01801	147.39929	157.23431	
557	5.560	274.61618	150.45854	292.45490	277.01694	147.39970	157.23459	
558	5.570	274.61465	150.45760	292.45575	277.01532	147.40033	157.23502	
559	5.580	274.61169	150.45575	292.45743	277.01343	147.40108	157.23550	
560	5.590	274.60742	150.45306	292.45993	277.01163	147.40178	157.23595	
561	5.600	274.60220	150.44974	292.46313	277.01028	147.40231	157.23627	
562	5.610	274.59674	150.44626	292.46661	277.00955	147.40259	157.23645	
563	5.620	274.59235	150.44339	292.46964	277.00958	147.40257	157.23645	
564	5.630	274.59018	150.44188	292.47156	277.01025	147.40231	157.23627	
565	5.640	274.59070	150.44205	292.47202	277.01151	147.40182	157.23596	
566	5.650	274.59360	150.44374	292.47098	277.01312	147.40120	157.23555	
567	5.660	274.59821	150.44656	292.46857	277.01483	147.40053	157.23511	
568	5.670	274.60361	150.45000	292.46533	277.01630	147.39995	157.23474	
569	5.680	274.60889	150.45340	292.46188	277.01724	147.39958	157.23450	
570	5.690	274.61328	150.45625	292.45886	277.01776	147.39938	157.23438	
571	5.700	274.61636	150.45827	292.45663	277.01810	147.39925	157.23430	
572	5.710	274.61798	150.45937	292.45535	277.01855	147.39906	157.23416	
573	5.720	274.61819	150.45955	292.45496	277.01938	147.39874	157.23398	
574	5.730	274.61713	150.45892	292.45541	277.02036	147.39836	157.23372	
575	5.740	274.61502	150.45761	292.45654	277.02115	147.39806	157.23352	
576	5.750	274.61209	150.45580	292.45816	277.02133	147.39798	157.23346	
577	5.760	274.60870	150.45370	292.45996	277.02072	147.39822	157.23361	
578	5.770	274.60529	150.45163	292.46161	277.01938	147.39874	157.23395	
579	5.780	274.60245	150.44997	292.46268	277.01764	147.39943	157.23439	
580	5.790	274.60080	150.44910	292.46289	277.01590	147.40012	157.23483	
581	5.800	274.60077	150.44923	292.46219	277.01437	147.40070	157.23521	
582	5.810	274.60223	150.45026	292.46078	277.01318	147.40117	157.23553	
583	5.820	274.60474	150.45189	292.45905	277.01230	147.40152	157.23576	
584	5.830	274.60779	150.45380	292.45734	277.01169	147.40175	157.23592	
585	5.840	274.61081	150.45561	292.45596	277.01138	147.40189	157.23599	
586	5.850	274.61325	150.45706	292.45499	277.01135	147.40189	157.23601	
587	5.860	274.61472	150.45790	292.45444	277.01163	147.40178	157.23593	
588	5.870	274.61499	150.45807	292.45428	277.01233	147.40150	157.23575	
589	5.880	274.61414	150.45760	292.45450	277.01358	147.40102	157.23544	
590	5.890	274.61240	150.45660	292.45499	277.01535	147.40031	157.23499	
591	5.900	274.61023	150.45537	292.45566	277.01752	147.39948	157.23444	
592	5.910	274.60812	150.45415	292.45642	277.01987	147.39856	157.23386	
593	5.920	274.60629	150.45308	292.45709	277.02209	147.39767	157.23331	
594	5.930	274.60492	150.45229	292.45758	277.02383	147.39700	157.23285	
595	5.940	274.60422	150.45189	292.45773	277.02478	147.39664	157.23262	
596	5.950	274.60446	150.45206	292.45752	277.02478	147.39664	157.23260	
597	5.960	274.60577	150.45284	292.45703	277.02383	147.39700	157.23285	
598	5.970	274.60809	150.45415	292.45639	277.02203	147.39771	157.23331	
599	5.980	274.61102	150.45576	292.45572	277.01962	147.39864	157.23392	
600	5.990	274.61398	150.45738	292.45514	277.01678	147.39975	157.23462	
601	6.000	274.61646	150.45872	292.45471	277.01361	147.40100	157.23543	
602	6.010	274.61798	150.45956	292.45438	277.01010	147.40237	157.23633	
603	6.020	274.61835	150.45979	292.45416	277.00653	147.40376	157.23721	
604	6.030	274.61737	150.45934	292.45398	277.00330	147.40503	157.23804	
605	6.040	274.61493	150.45813	292.45380	277.00082	147.40601	157.23865	
606	6.050	274.61105	150.45621	292.45367	276.99939	147.40656	157.23901	
607	6.060	274.60596	150.45366	292.45349	276.99911	147.40666	157.23907	
608	6.070	274.60034	150.45085	292.45343	277.00009	147.40630	157.23883	
609	6.080	274.59549	150.44839	292.45346	277.00241	147.40538	157.23824	
610	6.090	274.59296	150.44707	292.45370	277.00607	147.40396	157.23732	
611	6.100	274.59375	150.44739	292.45410	277.01065	147.40216	157.23618	
612	6.110	274.59747	150.44920	292.45447	277.01550	147.40027	157.23495	
613	6.120	274.60275	150.45181	292.45465	277.01974	147.39859	157.23387	
614	6.130	274.60806	150.45450	292.45468	277.02283	147.39740	157.23309	
615	6.140	274.61258	150.45680	292.45453	277.02435	147.39680	157.23270	
616	6.150	274.61584	150.45850	292.45435	277.02432	147.39682	157.23271	
617	6.160	274.61786	150.45955	292.45416	277.02277	147.39742	157.23309	
618	6.170	274.61859	150.45993	292.45413	277.01996	147.39850	157.23383	
619	6.180	274.61813	150.45964	292.45435	277.01617	147.39998	157.23477	
620	6.190	274.61652	150.45871	292.45493	277.01178	147.40169	157.23590	
621	6.200	274.61392	150.45717	292.45599	277.00742	147.40337	157.23700	
622	6.210	274.61047	150.45509	292.45758	277.00381	147.40477	157.23792	
623	6.220	274.60657	150.45270	292.45966	277.00150	147.40567	157.23849	
624	6.230	274.60284	150.45032	292.46194	277.00067	147.40601	157.23871	
625	6.240	274.60007	150.44849	292.46399	277.00113	147.40588	157.23856	
626	6.250	274.59897	150.44766	292.46527	277.00244	147.40547	157.23816	
627	6.260	274.59988	150.44809	292.46545	277.00443	147.40486	157.23755	
628	6.270	274.60248	150.44958	292.46451	277.00684	147.40417	157.23676	
629	6.280	274.60602	150.45175	292.46274	277.00931	147.40350	157.23593	
630	6.290	274.60977	150.45409	292.46063	277.01178	147.40286	157.23508	
631	6.300	274.61310	150.45621	292.45856	277.01431	147.40215	157.23425	
632	6.310	274.61560	150.45781	292.45697	277.01685	147.40128	157.23355	
633	6.320	274.61703	150.45874	292.45599	277.01907	147.40028	157.23306	
634	6.330	274.61737	150.45894	292.45587	277.02084	147.39932	157.23279	
635	6.340	274.61667	150.45845	292.45651	277.02219	147.39847	157.23270	
636	6.350	274.61508	150.45737	292.45786	277.02307	147.39781	157.23270	
637	6.360	274.61292	150.45587	292.45969	277.02344	147.39745	157.23276	
638	6.370	274.61057	150.45427	292.46167	277.02322	147.39735	157.23294	
639	6.380	274.60846	150.45282	292.46344	277.02228	147.39763	157.23325	
640	6.390	274.60699	150.45183	292.46466	277.02045	147.39828	157.23376	
641	6.400	274.60651	150.45151	292.46509	277.01755	147.39940	157.23448	
642	6.410	274.60709	150.45189	292.46457	277.01361	147.40092	157.23547	
643	6.420	274.60849	150.45287	292.46332	277.00891	147.40279	157.23666	
644	6.430	274.61041	150.45419	292.46167	277.00406	147.40469	157.23788	
645	6.440	274.61252	150.45563	292.45984	277.00006	147.40627	157.23888	
646	6.450	274.61453	150.45703	292.45810	276.99808	147.40706	157.23938	
647	6.460	274.61627	150.45822	292.45660	276.99866	147.40683	157.23923	
648	6.470	274.61752	150.45909	292.45551	277.00156	147.40572	157.23849	
649	6.480	274.61819	150.45956	292.45486	277.00558	147.40414	157.23749	
650	6.490	274.61829	150.45964	292.45471	277.00946	147.40263	157.23648	
651	6.500	274.61786	150.45937	292.45502	277.01239	147.40149	157.23575	
652	6.510	274.61700	150.45880	292.45563	277.01431	147.40073	157.23526	
